
<svg width="28" height="32" viewBox="0 0 28 32" fill="none" xmlns="http://www.w3.org/2000/svg">
<g clip-path="url(#clip0_7699_1754)">
<path d="M25.7294 22.7115L14.3301 28.8824V15.576L25.7294 9.17973V22.7115ZM27.4374 6.90339L14.4779 0.12153C14.1545 -0.0477114 13.7667 -0.0396459 13.4504 0.142863L0.533005 7.60079C0.203127 7.79137 0 8.1433 0 8.52427V23.464C0 23.845 0.203127 24.1969 0.533005 24.3875L13.4714 31.8574C13.8014 32.0476 14.2077 32.0476 14.5378 31.8574L27.4761 24.3875C27.806 24.1969 28.0091 23.845 28.0091 23.464V7.84802C28.0091 7.45127 27.7888 7.08733 27.4374 6.90339Z" fill="#101828"/>
<path d="M19.3786 16.9172L17.3016 18.1166V23.5673L19.3786 22.368V16.9172Z" fill="#101828"/>
<path d="M23.9381 14.3116L21.8611 15.511V20.9615L23.9381 19.7625V14.3116Z" fill="#101828"/>
</g>
<defs>
<clipPath id="clip0_7699_1754">
<rect width="28" height="32" fill="white"/>
</clipPath>
</defs>
</svg>
