<svg id="PuzzleTablet_svg__Layer_1" xmlns="http://www.w3.org/2000/svg" x="0" y="0" viewBox="0 0 77.3 108" xml:space="preserve" class="absolute top-8 right-0 hidden h-[500px] lg:block xl:right-10 xl:top-2 xl:h-[530px]"><style>.PuzzleTablet_svg__st0{fill:#5aa9ff}.PuzzleTablet_svg__st0,.PuzzleTablet_svg__st1{stroke:#000;stroke-width:.6;stroke-linejoin:round}.PuzzleTablet_svg__st1,.PuzzleTablet_svg__st5{fill:#87d8ff}.PuzzleTablet_svg__st8{fill:#95d43b}.PuzzleTablet_svg__st9{fill:#d9fc50}.PuzzleTablet_svg__st14{fill:#5aa9ff}.PuzzleTablet_svg__st17,.PuzzleTablet_svg__st18,.PuzzleTablet_svg__st19,.PuzzleTablet_svg__st20{fill:#d9fc50;stroke:#000;stroke-width:.6;stroke-linejoin:round}.PuzzleTablet_svg__st18,.PuzzleTablet_svg__st19,.PuzzleTablet_svg__st20{fill:none}.PuzzleTablet_svg__st19,.PuzzleTablet_svg__st20{fill:#95d43b}.PuzzleTablet_svg__st20{fill:#ecfda6}.PuzzleTablet_svg__st21{fill:#00bba3}.PuzzleTablet_svg__st22{fill:#00ffa7}.PuzzleTablet_svg__st23{fill:#91ffd9;stroke:#000;stroke-width:.6;stroke-miterlimit:10}.PuzzleTablet_svg__st24{fill:none;stroke-linecap:round;stroke-linejoin:round}.PuzzleTablet_svg__st24,.PuzzleTablet_svg__st25,.PuzzleTablet_svg__st30{stroke:#000;stroke-width:.6}.PuzzleTablet_svg__st25{stroke-linejoin:round}.PuzzleTablet_svg__st30{fill:#bfeaff;stroke-miterlimit:10}.PuzzleTablet_svg__st31,.PuzzleTablet_svg__st35,.PuzzleTablet_svg__st36{fill:#cba7ff}.PuzzleTablet_svg__st35,.PuzzleTablet_svg__st36{stroke:#000;stroke-width:.6;stroke-linejoin:round}.PuzzleTablet_svg__st36{fill:#a973ff}</style><path class="PuzzleTablet_svg__st21" d="m14.6 55.4.4-.2c.4-.2.1-.6-.4-.6-.7 0-1.4-.2-2.1-.5-.5-.2-.8-.6-.9-1.2V58c-.1.7.3 1.3.9 1.5.6.3 1.2.5 1.8.5l.6-.4c.4-.1.2-4.1-.3-4.2z"></path><path class="PuzzleTablet_svg__st22" d="M29.7 53.3c-.8 0-1.5.2-2.2.7-.6.3-.9 1-.8 1.7-.1 1.5-.1 3 .1 4.5.1-.3.4-.6.7-.8.7-.4 1.4-.6 2.2-.7.3 0 .4-.1.4-.3V53c0 .1-.2.2-.4.3zM21.8 60.2c-1.5-.9-3.6-.9-5.2-.1-.4.2-.8.7-.9 1.2 0 .2-.5.4-.7.2l-5.5-3.2v5.4l5.5 3.2c.3.2.8.1.8-.2.1-.5.5-1 1-1.2 1.6-.8 3.5-.8 5 .1.3.2.5.5.7.8.1-1.5.2-3 .1-4.5 0-.6-.2-1.4-.8-1.7z"></path><path class="PuzzleTablet_svg__st21" d="M39.6 63.8v-5.4l-5.5 3.2c-.4.2-.1.6.4.6l-.4.2c-.4.2-.1 4.2.4 4.2h.3l4.8-2.8zM19.2 63.9c-.1 0-.1-.1-.1-.1V69c0 .1 0 .2.1.2l5.5 3.2V67l-5.5-3.1z"></path><path class="PuzzleTablet_svg__st22" d="M37.6 64c-.1.6-.5 1.1-1 1.3-1.4.7-3 .7-4.4 0-.5-.2-.9-.7-1-1.3 0-.3-.7-.4-1-.2L24.7 67v5.4l5.4-3.2c.4-.2 1-.1 1 .2.1.6.5 1 1 1.3 1.4.6 3 .6 4.4 0 .5-.2.9-.7 1-1.3l.1-5.4z"></path><path class="PuzzleTablet_svg__st23" d="m39.7 58.4-5.5-3.2c-.3-.2-.8-.1-.8.2-.1.5-.5 1-1 1.2-1.6.8-3.5.8-5-.1-.7-.4-.9-1.2-.6-1.9.1-.3.4-.5.6-.6.7-.4 1.4-.6 2.2-.7.4 0 .6-.3.3-.5l-5.5-3.2-5.4 3.3c-.4.2-1 .1-1-.2-.1-.6-.5-1-1-1.2-1.4-.7-3-.7-4.4 0-1.3.7-1.4 2-.1 2.7.6.3 1.4.5 2.1.5.5 0 .7.4.4.6l-5.3 3v.1l5.3 3.2c.3.2.8.1.8-.2.1-.5.5-1 1-1.2 1.6-.8 3.5-.8 5 .1.7.3 1 1.2.7 1.9-.1.3-.4.5-.7.7-.7.4-1.4.6-2.2.7-.4 0-.6.3-.3.5l5.5 3.2 5.5-3.2c.4-.2 1-.1 1 .2.1.6.5 1 1 1.3 1.4.7 3 .7 4.4 0 1.3-.7 1.4-1.9.1-2.7-.6-.3-1.4-.5-2.1-.5-.5 0-.7-.4-.4-.6l5.4-3.4"></path><path class="PuzzleTablet_svg__st18" d="M34.3 55.2c-.3-.2-.8-.1-.8.2-.1.5-.5 1-1 1.2-.7.4-1.5.6-2.3.6v-4.1c0-.1 0-.2-.1-.2l-5.5-3.2-5.5 3.2c-.4.2-1 .1-1-.2-.1-.6-.5-1-1-1.2-1.4-.7-3-.7-4.4 0-.8.4-1 1.6-1 1.5v4l-2.1 1.3v5.4l5.5 3.2c.3.2.8.1.8-.2.1-.5.5-1 1-1.2.7-.4 1.5-.6 2.3-.6V69c0 .1 0 .2.1.2l5.5 3.2h.1l5.4-3.2c.4-.2 1-.1 1 .2.1.6.5 1 1 1.3 1.4.6 3 .6 4.4 0 .5-.2.9-.7 1-1.3v-4.5l2.1-1.2v-5.5l-5.5-3z"></path><path class="PuzzleTablet_svg__st24" d="M19.1 63.8v1.1"></path><path class="PuzzleTablet_svg__st1" d="M43.5 46.1zM45.6 40.4zM45.6 39.6z"></path><path class="PuzzleTablet_svg__st25" d="M55.7 85.6c.8 0 1.5-.2 2.2-.6.7-.3 1-1.1.7-1.8-.1-.3-.4-.6-.7-.7-1.4-.8-3.2-.8-4.7-.1-.5.2-.8.7-.9 1.2 0 .3-.7.4-1 .2l-5.5-3.2-5.4 3.1c-.3.2-.1.4.3.5.7 0 1.4.2 2.1.6 1.7 1 1.2 2.7-1.2 3.2-.8.2-1.5.2-2.3 0-1.4-.3-2.1-1-2.2-1.7 0-.2-.5-.3-.8-.2l-5.4 3.1 5.5 3.2c.4.2.1.6-.4.6-.8 0-1.5.2-2.2.6-.8.5-1 1.3-.6 1.9-.4-.7-.2-1.5.4-1.9 0 0 .1 0 .1-.1.7-.4 1.4-.6 2.2-.7.4 0 .6-.3.3-.4l-5.5-3.2-5.5 3.1c-.4.2-1 .1-1-.2-.1-.6-.5-1-1-1.2-1.2-.6-2.6-.6-3.8-.2 1.3-.4 2.7-.4 4 .2.6.2 1 .7 1.1 1.3 0 .2.5.3.8.2l5.4-3.1-5.5-3.2c-.3-.2-.1-.6.4-.6.7 0 1.4-.2 2.1-.5 1.6-.9 1.2-2.5-1.2-3.1-.7-.2-1.5-.2-2.2 0-1.3.3-2 1-2.1 1.6 0 .3-.7.4-1 .2l-5.5-3.2-5.4 3.1c-.3.2-.1.4.3.5.8 0 1.5.3 2.2.7.7.3 1 1.2.7 1.9-.1.3-.4.5-.7.7-1.5.9-3.4.9-5 .1-.5-.2-.9-.7-1-1.2 0-.2-.5-.3-.8-.2l-5.1 3c-.1.1-.1.2-.1.3l.1.1L15.5 98l5.4-3.1c.3-.2.1-.4-.3-.5-.7 0-1.4-.2-2.1-.6-.5-.2-.8-.6-1-1.1.2.4.5.8.9 1 .6.3 1.4.5 2.1.6.5 0 .7.4.4.6l-5.4 3.2 14.4 8.3c.5.3 1 .3 1.5 0l14.3-8.3-5.5-3.2c-.3-.2-.8-.1-.8.2-.1.5-.5 1-1 1.2-.7.4-1.4.5-2.2.6.7 0 1.4-.2 2-.5.5-.2.8-.7.9-1.2 0-.3.7-.4 1-.2l5.6 3.2 15-8.7-5.5-3.2c-.3-.3 0-.7.5-.7zM18.8 91z"></path><path class="PuzzleTablet_svg__st25" d="m74.7 79.8-13.8-8-5.5 3.2c-.3.2-1 .1-1-.2-.1-.5-.5-1-1-1.2-1.5-.8-3.2-.8-4.7 0-.7.3-1 1.1-.8 1.8.1.3.4.6.8.8.7.4 1.4.6 2.2.6.5 0 .7.4.4.6l-5.5 3.2 5.5 3.2c.3.2.7.1.8-.2.2-.6.6-1 1.1-1.3 1.4-.6 3-.6 4.4 0 1.5.8 1.6 2.1.2 2.9-.6.3-1.3.5-2.1.6-.4 0-.6.3-.3.4l5.5 3.2 13.7-7.9c.4-.2.6-.8.4-1.2 0-.3-.2-.4-.3-.5z"></path><path d="M57.8 79.5c.5.2.8.6 1.1 1 .1-1.5.1-3 0-4.5.2-.7-.1-1.4-1.1-1.9-1.4-.6-3-.6-4.4 0-.6.2-1 .7-1.1 1.3 0 .2-.5.3-.8.2l-5.4-3.1s-.1 0-.1.1V78l5.4 3.1c.3.2.8.1.8-.2.2-.6.6-1 1.1-1.3 1.5-.7 3.1-.7 4.5-.1z" style="fill: rgb(0, 255, 167); stroke: rgb(0, 0, 0); stroke-width: 0.6; stroke-miterlimit: 10;"></path><path class="PuzzleTablet_svg__st22" d="m74.8 73.2-13.7 7.9H61L55.6 78c-.1 0-.1-.1-.1-.1v5.3c0 .1 0 .2.1.2l5.4 3.2h.1l13.7-7.9c.2-.1.4-.4.4-.7v-5.5c.1.2-.1.5-.4.7z"></path><path class="PuzzleTablet_svg__st21" d="m74.8 73.2-13.7 7.9H61L55.6 78c-.1 0-.1-.1-.1-.1v5.3c0 .1 0 .2.1.2l5.4 3.2h.1l13.7-7.9c.2-.1.4-.4.4-.7v-5.5c.1.2-.1.5-.4.7z"></path><path d="M48.9 73.4c.6.3 1.2.5 1.9.6l.6-.4c.4-.2.1-4.2-.4-4.2l.4-.2c.4-.2.1-.6-.4-.6-.8 0-1.5-.2-2.2-.6-.4-.2-.7-.6-.8-1.1v5c0 .7.4 1.3.9 1.5z" style="fill: rgb(0, 187, 163); stroke: rgb(0, 0, 0); stroke-width: 0.6; stroke-miterlimit: 10;"></path><path class="PuzzleTablet_svg__st23" d="M58 77c1.4-.8 1.3-2.1-.2-2.9-1.4-.6-3-.6-4.4 0-.6.2-1 .7-1.1 1.3 0 .2-.5.3-.8.2l-5.4-3.1v-.1l5.4-3.1c.4-.2.1-.6-.4-.6-.8 0-1.5-.2-2.2-.6-.7-.3-1-1.1-.8-1.8.1-.3.4-.6.8-.8 1.5-.8 3.2-.8 4.7 0 .5.2.9.7 1 1.2 0 .3.7.4 1 .2l5.4-3.1h.1l13.8 8c.4.2.6.8.3 1.2-.1.1-.2.3-.3.3l-13.7 7.8h-.1L55.7 78c-.3-.2-.1-.4.3-.4.7-.1 1.4-.3 2-.6z"></path><path class="PuzzleTablet_svg__st22" d="m61.2 86.5 13.7-7.9c.2-.1.4-.4.4-.7v-5.5c0 .3-.2.6-.4.8l-13.7 7.9v5.4z"></path><path d="m74.8 73.2-13.7 7.9H61L55.6 78c-.1 0 0-.3-.1-.1v5.3c0 .1 0 .2.1.2l5.4 3.2h.1l13.7-7.9c.2-.1.4-.4.4-.7v-5.5c.1.2-.1.5-.4.7z" style="fill: none; stroke: rgb(0, 0, 0); stroke-width: 0.6; stroke-miterlimit: 10;"></path><path class="PuzzleTablet_svg__st18" d="m74.9 71.8-13.8-8-5.5 3.2c-.3.2-1 .1-1-.2-.1-.5-.5-1-1-1.2-1.5-.8-3.2-.8-4.7 0-.3.1-.6.4-.8.8-.1.3-.1.6-.1.9v4l-2 1.1v5.4l5.5 3.2c.3.2.8.1.8-.2.2-.6.6-1 1.1-1.3.7-.3 1.5-.5 2.2-.5v4.1c0 .1 0 .2.1.2l5.5 3.2 13.7-7.9c.2-.1.4-.4.4-.7V72.8c.1-.4-.1-.8-.4-1z"></path><path class="PuzzleTablet_svg__st1" d="M45.7 90z"></path><path class="PuzzleTablet_svg__st8" d="m51.6 54.6-.4-3.9c.5 0 .7-.4.4-.6L46.1 47v5.4l4.9 2.8h.3c.5 0 .7-.4.3-.6zM58.1 42.4c-.6-.3-1.3-.5-2.1-.6-.2 0-.4-.1-.4-.3V47c0 .1.2.2.4.3.7 0 1.4.2 2.1.6.4.2.7.5.9.9.1-1.5.1-3 0-4.5.3-.7 0-1.4-.9-1.9z"></path><path class="PuzzleTablet_svg__st9" d="M70.9 50.2c-.3.2-.7.1-.8-.2-.1-.5-.5-1-1-1.2-1.6-.8-3.5-.8-5 .1-.6.3-.9 1-.7 1.7-.1 1.5-.1 3 0 4.5.1-.3.4-.6.7-.8 1.5-.9 3.4-.9 5-.1.5.2.9.7 1 1.2 0 .2.5.3.8.2l5.4-3.1V47l-5.4 3.2z"></path><path class="PuzzleTablet_svg__st8" d="M66.9 52.4c0 .1-.1.1-.1.1l-5.4 3.1V61l5.4-3.1c.1 0 .2-.1.1-.2v-5.3z"></path><path class="PuzzleTablet_svg__st9" d="M55.8 52.5c-.3-.2-1-.1-1 .2-.1.5-.4 1-.9 1.2-1.5.8-3.2.7-4.7-.1-.5-.2-.8-.7-.9-1.2V58c.1.5.4 1 .9 1.2 1.4.8 3.2.8 4.7.1.5-.2.8-.7.9-1.2 0-.3.7-.4 1-.2l5.5 3.2v-5.4l-5.5-3.2z"></path><path class="PuzzleTablet_svg__st20" d="M55.8 41.4c-.3.2-.1.4.3.5.7 0 1.4.2 2.1.6 1.4.8 1.3 2.1-.2 2.9-1.4.6-3 .6-4.4 0-.6-.2-1-.7-1.1-1.3 0-.2-.5-.3-.8-.2l-5.1 2.9c-.2.1-.2.3 0 .4l5.1 3c.4.2.1.6-.4.6-.8 0-1.5.2-2.2.6-.7.3-1 1.1-.8 1.8.1.3.4.6.8.8 1.5.8 3.2.8 4.7.1.5-.2.8-.7.9-1.2 0-.3.7-.4 1-.2l5.4 3.1h.2l5.3-3.1c.3-.2.1-.4-.3-.5-.8 0-1.5-.3-2.2-.7-.7-.3-1-1.2-.7-1.9.1-.3.4-.5.7-.7 1.5-.9 3.4-.9 5-.1.5.2.9.7 1 1.2 0 .2.5.3.8.2l5.1-2.9c.2-.1.2-.3 0-.4l-14.7-8.5h-.2l-5.3 3z"></path><path class="PuzzleTablet_svg__st18" d="m61 38.3-5.5 3.1c-.1.1-.1.1-.1.2v4.1c-.7 0-1.4-.2-2.1-.5-.6-.2-1-.7-1.1-1.3 0-.2-.5-.3-.8-.2L45.9 47l-.1 5.4 2.2 1.3V58c.1.5.4 1 .9 1.2 1.4.8 3.2.8 4.7.1.5-.2.8-.7.9-1.2 0-.3.7-.4 1-.2l5.5 3.2 5.4-3.1c.1 0 .2-.1.1-.2v-4.1c.8 0 1.5.2 2.2.6.5.2.9.7 1 1.2 0 .2.5.3.8.2l5.4-3.1v-5.4h.1l-15-8.9z"></path><path class="PuzzleTablet_svg__st24" d="M66.6 52.8v1"></path><path class="PuzzleTablet_svg__st5" d="M39.3 42.5c-.4.2-.1.6.4.6l-.4 3.9c-.4.2-.1.6.4.6h.3l4.9-2.8v-5.4l-5.6 3.1z"></path><path class="PuzzleTablet_svg__st14" d="M41.8 46.2c-1.5.8-3.2.8-4.7 0-.5-.2-.8-.7-.9-1.2 0-.3-.7-.4-1-.2L29.7 48v5.4l5.5-3.2c.4-.2 1-.1 1 .2.1.5.5 1 .9 1.2 1.5.8 3.2.7 4.7 0 .5-.2.8-.7.8-1.2l-.1-5.7c.1.6-.2 1.2-.7 1.5z"></path><path class="PuzzleTablet_svg__st1" d="M35.3 33.9c-.1.1-.2.2-.4.2-.7 0-1.4.2-2.1.6-.8.5-1.1 1.1-.9 1.8-.1 1.5-.1 3 0 4.5.2-.4.5-.7.9-.9.6-.3 1.3-.5 2.1-.6.3 0 .5-.2.4-.3v-5.3z"></path><path class="PuzzleTablet_svg__st5" d="M16 40.1c-.3-.2-.5-.5-.5-.9v5.6c0 .3.2.6.5.7l13.7 7.9V48L16 40.1z"></path><path class="PuzzleTablet_svg__st30" d="M32.8 34.7c-1.4.8-1.3 2.1.2 2.9 1.4.6 3 .6 4.4 0 .6-.2 1-.7 1.1-1.3 0-.2.5-.3.8-.2l5.1 2.9c.2.1.2.3 0 .4l-5.1 2.9c-.4.2-.1.6.4.6.8 0 1.5.2 2.2.6.7.3 1 1.1.8 1.8-.1.3-.4.6-.8.8-1.5.8-3.2.8-4.7 0-.5-.2-.8-.7-.9-1.2 0-.3-.7-.4-1-.2l-5.4 3.1h-.3L16 40.1c-.5-.3-.6-.8-.3-1.3.1-.1.2-.3.3-.3l13.5-7.8h.3l5.3 3.1c.3.2.1.4-.3.5-.7-.1-1.4.1-2 .4z"></path><path class="PuzzleTablet_svg__st18" d="m44.8 39.3-5.4-3.2c-.3-.2-.8 0-.8.2-.1.6-.6 1.1-1.1 1.3-1.4.6-3 .6-4.5 0-1.5-.8-1.6-2.1-.2-2.9.6-.3 1.3-.5 2.1-.6.4 0 .6-.3.3-.5l-5.5-3.2-13.7 8c-.1.1-.3.2-.3.3-.1.1-.1.3-.1.4v5.6c0 .3.2.6.5.7l13.7 7.9 5.5-3.1c.4-.2 1-.1 1 .2.1.5.5 1 .9 1.2 1.5.8 3.2.7 4.7 0 .5-.2.8-.7.8-1.2v-4.5l2-1.2v-5.4z"></path><path class="PuzzleTablet_svg__st31" d="M56.1 23.4c0 .1.1.1.1.1.6-.1 1.2-.2 1.8-.6.5-.3.8-.8.8-1.4v-5.4c0 .6-.3 1.1-.8 1.4-.7.4-1.4.6-2.2.6-.5 0-.7.4-.4.6l.4.2c-.4 0 .2 3.8.3 4.5zm2.8-6.3z"></path><path class="PuzzleTablet_svg__st31" d="M55.6 25c-.3.2-.8 0-.8-.2-.2-.6-.6-1-1.1-1.3-1.4-.6-3-.6-4.4 0-1 .5-1.3 1.2-1.1 1.9-.1 1.5-.1 3 0 4.5.2-.4.6-.8 1.1-1 1.4-.6 3-.6 4.4 0 .6.2 1 .7 1.1 1.3 0 .2.5.3.8.2l5.4-3.1.1-.1v-5.1c0-.1-.1-.1-.2-.1l-5.3 3zM36.4 25 31 21.9c-.1 0-.2 0-.2.1v5.2l4.9 2.8h.3c.5 0 .7-4 .4-4.2l-.4-.2c.5-.1.7-.4.4-.6z"></path><path d="M51.5 27.2c0 .1 0 .1-.1.2L46 30.5l-5.5-3.2c-.4-.2-1-.1-1 .2-.1.5-.5 1-.9 1.2-1.5.7-3.2.7-4.7-.1-.8-.4-.8-1.5-.8-1.1v5c0 .6.3 1.2.8 1.5 1.5.8 3.2.8 4.7.1.5-.2.8-.7.9-1.2 0-.3.7-.4 1-.2L46 36l5.5-3.1c.1-.1.2-.1.1-.2l-.1-5.5z" style="fill: rgb(169, 115, 255); stroke: rgb(0, 0, 0); stroke-width: 0.6; stroke-miterlimit: 10;"></path><path d="M53.3 14.9c-.5.2-.8.7-.9 1.2 0 .3-.7.4-1 .2l-5.5-3.2-15 8.7 5.5 3.2c.4.2.1.6-.4.6-.8 0-1.5.2-2.2.6-.7.3-1 1.1-.8 1.8.1.3.4.6.8.8 1.5.8 3.2.8 4.7.1.5-.2.8-.7.9-1.2 0-.3.7-.4 1-.2l5.5 3.2 5.4-3.1c.3-.2.1-.4-.3-.5-.7 0-1.4-.2-2.1-.6-1.4-.8-1.3-2.1.2-2.9 1.4-.6 3-.6 4.4 0 .6.2 1 .7 1.1 1.3 0 .2.5.3.8.2l5.3-3c.1 0 .1-.2 0-.2l-5.3-3.1c-.4-.2-.1-.6.4-.6.8 0 1.5-.2 2.2-.6.7-.3 1-1.1.7-1.8-.1-.3-.4-.6-.7-.7-1.4-1-3.2-1-4.7-.2z" style="fill: rgb(223, 200, 255); stroke: rgb(0, 0, 0); stroke-width: 0.6; stroke-miterlimit: 10;"></path><path class="PuzzleTablet_svg__st18" d="m59 20.6-.1-.1v-4c.1-.3 0-.6-.1-.8-.1-.3-.4-.6-.7-.7-1.5-.8-3.2-.8-4.7 0-.5.2-.8.7-.9 1.2 0 .3-.7.4-1 .2L46 13.2h-.1L31 21.8v5.4s0 .1.1.1l2 1.2.1.1v4.1c0 .6.3 1.2.8 1.5 1.5.8 3.2.8 4.7.1.5-.2.8-.7.9-1.2 0-.3.7-.4 1-.2l5.5 3.2h.1l5.4-3.1c.1-.1.2-.1.1-.2v-4c0-.1.1-.1.1-.1.7 0 1.3.2 2 .4.6.2 1 .7 1.1 1.3 0 .2.5.3.8.2l5.4-3.1.1-.1v-5.3h.1L59 20.6z"></path><path class="PuzzleTablet_svg__st14" d="M38 13.5c-.3.2-.1.6.4.6l-.4.2c-.3.2-.1 4.2.4 4.2h.3l4.8-2.8v-5c0-.2-.2-.3-.4-.2l-5.1 3zM25.6 17.4c.3.2.6.5.7.8.1-1.5.1-3 0-4.5.2-.7-.1-1.4-.7-1.7-1.5-.8-3.4-.9-4.9-.1-.5.2-.9.7-1 1.2 0 .2-.5.3-.8.2l-5.5-3.2v5.4l5.5 3.2c.3.2.7.1.8-.2.1-.5.5-1 1-1.2 1.5-.8 3.4-.7 4.9.1z"></path><path d="M40.5 17.3c-1.4.7-3 .7-4.4 0-.5-.2-.9-.7-1-1.3 0-.3-.7-.4-1-.2L28.6 19l-5.5-3.2s-.1.1-.1-.1v5.2c-.1.1 0 .2.1.3l5.5 3.1 5.5-3.2c.3-.2 1-.1 1 .2.1.6.5 1 1 1.2 1.4.7 3 .7 4.4 0 .5-.2.9-.7 1-1.3V16c-.1.5-.5 1-1 1.3z" style="fill: rgb(135, 216, 255); stroke: rgb(0, 0, 0); stroke-width: 0.5; stroke-miterlimit: 10;"></path><path class="PuzzleTablet_svg__st30" d="M20.7 12.1c1.6-.8 3.4-.8 4.9.1.7.4 1 1.3.6 2-.1.3-.4.5-.6.6-.7.4-1.4.6-2.2.6-.4 0-.6.3-.3.5l5.4 3.1h.2l5.4-3.1c.3-.2 1-.1 1 .2.1.6.5 1 1 1.2 1.4.7 3 .7 4.4 0 1.3-.7 1.4-2 .1-2.7-.6-.3-1.4-.5-2.1-.6-.5 0-.7-.4-.4-.6l5.2-3c.1-.1.1-.3 0-.4L29.7 2.3c-.8-.4-1.7-.4-2.4 0l-13.5 7.8c-.1.1-.1.3 0 .4l5.2 2.9c.3.2.7.1.8-.2 0-.4.4-.9.9-1.1z"></path><path class="PuzzleTablet_svg__st18" d="m43.5 10.2-13.9-8c-.8-.4-1.7-.4-2.4 0l-13.8 8-.1 5.6 5.5 3.2c.3.2.7.1.8-.2.1-.5.5-1 1-1.2.7-.4 1.5-.6 2.3-.6v4c0 .1 0 .2.1.3l5.5 3.1 5.5-3.2c.3-.2 1-.1 1 .2.1.6.5 1 1 1.2 1.4.7 3 .7 4.4 0 .5-.2.9-.7 1-1.3V17l2.1-1.2V10.2z"></path><path class="PuzzleTablet_svg__st17" d="M16.1 90.9.9 82.2v5.4l15.2 8.8zM25.7 85.4c-.3.2-.8.1-.8-.2-.2-.6-.6-1.1-1.1-1.3-1.4-.6-3-.6-4.4 0-1 .5-1.3 1.2-1.1 1.9-.1 1.5-.1 3 0 4.5.2-.4.6-.8 1-1 1.4-.6 3-.6 4.4 0 .6.2 1 .7 1.1 1.3 0 .2.5.3.8.2l5.4-3.1v-5.4l-5.3 3.1z"></path><path class="PuzzleTablet_svg__st19" d="M21.7 91.3s0 .1-.1-3.5l-5.4 3.1v5.4l5.4-3.1c.1-.1.2-.2.1-.3v-1.6zM10.9 82.5c.8 0 1.5.3 2.2.7.3.2.6.5.7.8.1-1.5.1-3 0-4.5.2-.7-.1-1.4-.8-1.7-.7-.4-1.4-.6-2.2-.7-.2 0-.3-.1-.4-.2v5.3c0 .1.2.3.5.3zM25.7 83.5l.6.4c.6 0 1.2-.2 1.8-.5.6-.2.9-.8.9-1.4v-5.3c-.1.5-.4 1-.9 1.2-.6.3-1.4.5-2.1.5-.5 0-.7.4-.4.6l.4.2c-.5.1-.7 4.1-.3 4.3z"></path><path class="PuzzleTablet_svg__st18" d="M29 81v-4.4c0-.5-.3-1.1-1-1.5-1.4-.7-3-.7-4.4 0-.5.2-.9.7-1 1.2 0 .3-.7.4-1 .2l-5.6-3-5.4 3.1c-.1.1-.1.2-.1.2V81c-.8 0-1.6-.2-2.4-.6-.5-.2-.9-.7-1-1.2 0-.2-.5-.3-.8-.2L.9 82.2v5.4L16 96.4l5.4-3.1c.1-.1.2-.2.1-.3v-1.6l-.1-2.5c.7 0 1.4.2 2.1.5.6.2 1 .7 1.1 1.3 0 .2.5.3.8.2l5.4-3.1v-5.4L29 81z"></path><path class="PuzzleTablet_svg__st0" d="M36.3 85.8c-.8 0-1.5.2-2.2.7-.9.6-2.6 1.7-.5 5.8.1-.2.3-.3.5-.4.7-.4 1.4-.6 2.2-.7.3 0 .5-.2.4-.3v-5.3c0 .1-.1.2-.4.2zM19.2 92c.2.1.5.2.8.3l1.7-1c1.4-4.4.1-4.2-.4-4.2-.7 0-1.4-.2-2.1-.5-.5-.2-.9-.7-1-1.3v5.4c0 .5.4 1.1 1 1.3z"></path><path class="PuzzleTablet_svg__st1" d="M46.2 96.4V91l-14.3 8.2c-.5.3-1 .3-1.5 0L16 90.9v5.4l14.4 8.3c.5.3 1 .3 1.5 0l14.3-8.2z"></path><path class="PuzzleTablet_svg__st0" d="M40.7 87.9c-.3-.2-.8-.1-.8.2-.1.5-.5 1-1 1.2-1.6.8-3.5.8-5-.1-.7-.3-1-1.2-.7-1.9.1-.3.4-.5.7-.7.7-.4 1.4-.6 2.2-.7.4 0 .6-.3.3-.5l-5.2-3c-.2-.1-.4-.1-.6 0l-5.1 2.9c-.4.2-1 .1-1-.2-.1-.6-.5-1-1-1.2-1.4-.7-3-.7-4.4 0-1.3.7-1.4 2-.1 2.7.6.3 1.4.5 2.1.5.5 0 .7.4.4.6l-5.2 3c-.2.1-.3.3-.3.5V96c0 .2.1.4.3.5l13.8 8c.6.4 1.4.4 2.1 0l13.7-7.9c.2-.1.3-.3.3-.5v-4.7c0-.2-.1-.4-.3-.5l-5.2-3z"></path><path class="PuzzleTablet_svg__st5" d="M16.6 91.3c-.3-.2-.5-.5-.5-.9V96c0 .3.2.6.5.7l14.4 8.1.1-5.3-14.5-8.2z"></path><path class="PuzzleTablet_svg__st30" d="M21.6 87.8c.4-.2.1-.6-.4-.6-.7 0-1.4-.2-2.1-.5-1.3-.8-1.3-2 .1-2.7 1.4-.7 3-.7 4.4 0 .5.2.9.7 1 1.2 0 .3.6.4 1 .2l5.4-3.1 5.5 3.2c.3.2.1.4-.3.4-.8 0-1.5.2-2.2.7-.3.1-.5.4-.7.7-.3.7-.1 1.6.7 1.9 1.5.9 3.4.9 5 .1.5-.2.9-.7 1-1.2 0-.2.5-.3.8-.2l5.5 3.2L32 99.3c-.5.3-1 .3-1.5 0L16.2 91c-.1 0-.1-.2 0-.2l5.4-3"></path><path class="PuzzleTablet_svg__st18" d="M40.7 87.9c-.3-.2-.8-.1-.8.2-.1.5-.5 1-1 1.2-1.6.8-3.5.8-5-.1-.7-.3-1-1.2-.7-1.9.1-.3.4-.5.7-.7.7-.4 1.4-.6 2.2-.7.4 0 .6-.3.3-.5l-5.3-3.1h-.2l-5.3 3c-.4.2-1 .1-1-.2-.1-.6-.5-1-1-1.2-1.4-.7-3-.7-4.4 0-1.3.7-1.4 2-.1 2.7.6.3 1.4.5 2.1.5.5 0 .7.4.4.6l-5.4 3.1c-.1 0-.1.1-.1.2v5.1c0 .1 0 .2.1.2l14.2 8.2c.5.3 1.2.3 1.7 0l14.1-8.1c.1 0 .1-.1.1-.2v-5.1c0-.1 0-.2-.1-.2l-5.5-3z"></path><path class="PuzzleTablet_svg__st20" d="M23.5 75.2c-.5.2-.9.7-1 1.2 0 .3-.7.4-1 .2L16 73.5l-5.4 3.1c-.3.2-.1.4.3.5.8 0 1.5.2 2.2.7.7.3 1 1.2.7 1.9-.1.3-.4.5-.7.7-1.5.9-3.4.9-5 .1-.5-.2-.9-.7-1-1.2 0-.2-.5-.3-.8-.2L.9 82.2 16 90.9l5.4-3.1c.3-.2.1-.4-.3-.5-.7 0-1.4-.2-2.1-.6-1.4-.8-1.3-2.1.2-2.9 1.4-.6 3-.6 4.4 0 .6.2 1 .7 1.1 1.3 0 .2.5.3.8.2l5.4-3.1-5.4-3.1c-.3-.2-.1-.6.4-.6.7 0 1.4-.2 2.1-.5 1.3-.8 1.2-2-.1-2.7-1.3-.7-2.9-.7-4.4-.1z"></path><path class="PuzzleTablet_svg__st25" d="M39 89.4c.5-.2.8-.7.9-1.2 0-.3.7-.4 1-.2l5.5 3.2-.1-2-13.8-7.7-1.3.9 5.5 3.2c.4.2.1.6-.4.6-.8 0-1.5.2-2.2.6-.7.3-1 1.1-.7 1.8.1.3.4.6.7.7 1.7.8 3.4.8 4.9.1z"></path><path class="PuzzleTablet_svg__st35" d="M36.5 83.6c.5 0 .7-4 .4-4.2l-.4-.2c.5 0 .7-.4.4-.6l-5.5-3.2v5.4l4.9 2.8h.2z"></path><path class="PuzzleTablet_svg__st36" d="M40.9 80.9c-.3-.2-1-.1-1 .2-.1.5-.5 1-.9 1.2-1.5.7-3.2.7-4.7-.1-.4-.2-.7-.6-.8-1.1v5c0 .6.3 1.2.8 1.4 1.4.8 3.2.8 4.7.1.5-.2.8-.7.9-1.2 0-.3.7-.4 1-.2l5.5 3.2V84l-5.5-3.1z"></path><path class="PuzzleTablet_svg__st35" d="M59.3 74.6V70c-.1.5-.4.9-.8 1.1-.7.4-1.4.6-2.2.6-.5 0-.7.4-.4.6l.4.2c-.5 0-.7 4-.4 4.2l.6.4c.7 0 1.3-.2 1.9-.6.6-.3.9-.8.8-1.5l.1-.4z"></path><path class="PuzzleTablet_svg__st36" d="M41.2 75.7c.7 0 1.4.2 2.1.6.4.2.7.5.9.9.1-1.5.1-3 0-4.5.2-.6-.1-1.3-.9-1.8-.6-.3-1.3-.5-2.1-.6-.2 0-.3-.1-.4-.2v5.3c0 .1.1.2.4.3z"></path><path class="PuzzleTablet_svg__st35" d="m61.5 75.4-15 8.7v5.4l15-8.7z"></path><path d="M39 82.3c.5-.2.8-.7.9-1.2 0-.3.7-.4 1-.2l5.5 3.2 15-8.7-5.4-3.2c-.4-.2-.1-.6.4-.6.8 0 1.5-.2 2.2-.6.7-.3 1-1.1.7-1.8-.1-.3-.4-.6-.7-.7-1.5-.8-3.2-.8-4.7-.1-.5.2-.8.7-.9 1.2 0 .3-.7.4-1 .2l-5.5-3.2-5.4 3.1c-.3.2-.1.4.3.5.7 0 1.4.2 2.1.6 1.4.8 1.3 2.1-.2 2.9-1.4.6-3 .6-4.4 0-.6-.2-1-.7-1.1-1.3 0-.2-.5-.3-.8-.2l-5.4 3.1 5.5 3.2c.4.2.1.6-.4.6-.8 0-1.5.2-2.2.6-.7.3-1 1.1-.7 1.8.1.3.4.6.7.7 1.3.8 3 .8 4.5.1z" style="fill: rgb(223, 200, 255); stroke: rgb(0, 0, 0); stroke-width: 0.6; stroke-linejoin: round;"></path><path class="PuzzleTablet_svg__st18" d="m61.5 75.4-2.1-1.2V70c0-.2 0-.5-.1-.8-.1-.3-.4-.6-.7-.7-1.5-.8-3.2-.8-4.7-.1-.5.2-.8.7-.9 1.2 0 .3-.7.4-1 .2l-5.5-3.2-5.6 3.3v4.2c-.7 0-1.4-.2-2.1-.5-.6-.2-1-.7-1.1-1.3 0-.2-.5-.3-.8-.2l-5.5 3.1v5.4l2.2 1.3V86c0 .6.3 1.2.8 1.5 1.4.8 3.2.8 4.7.1.5-.2.8-.7.9-1.2 0-.3.7-.4 1-.2l5.5 3.2 15-8.7v-5.3z"></path></svg>
