<svg xmlns="http://www.w3.org/2000/svg" viewBox="0 0 20 20" fill="none">
<path fill-rule="evenodd" clip-rule="evenodd" d="M8 4C8.17384 4.00004 8.34294 4.05669 8.48171 4.16139C8.62048 4.26609 8.72137 4.41314 8.76912 4.58029L9.63638 7.61613C9.82312 8.26993 10.1734 8.86535 10.6542 9.34614C11.1351 9.82693 12.3843 10.364 12.3843 10.364L15.4203 11.2312C15.5873 11.279 15.7342 11.38 15.8388 11.5187C15.9434 11.6575 16 11.8265 16 12.0003C16 12.174 15.9434 12.3431 15.8388 12.4818C15.7342 12.6206 15.5873 12.7215 15.4203 12.7694L12.3843 13.6366C11.7305 13.8233 11.1351 14.1736 10.6542 14.6544C10.1734 15.1352 9.82312 15.7306 9.63638 16.3844L8.76912 19.4203C8.72127 19.5873 8.62033 19.7342 8.48157 19.8388C8.34281 19.9434 8.17377 20 8 20C7.82623 20 7.65719 19.9434 7.51843 19.8388C7.37967 19.7342 7.27873 19.5873 7.23088 19.4203L6.36362 16.3844C6.17688 15.7306 5.82657 15.1352 5.34576 14.6544C4.86495 14.1736 4.26951 13.8233 3.61568 13.6366L0.579732 12.7694C0.412685 12.7215 0.265759 12.6206 0.161166 12.4818C0.056573 12.3431 0 12.174 0 12.0003C0 11.8265 0.056573 11.6575 0.161166 11.5187C0.265759 11.38 0.412685 11.279 0.579732 11.2312L3.61568 10.364C4.26951 10.1772 4.86495 9.82693 5.34576 9.34614C5.82657 8.86535 6.17688 8.26993 6.36362 7.61613L7.23088 4.58029C7.27863 4.41314 7.37952 4.26609 7.51829 4.16139C7.65706 4.05669 7.82616 4.00004 8 4Z" fill="currentColor"></path>
<path fill-rule="evenodd" clip-rule="evenodd" d="M16 0C16.0869 1.79205e-05 16.1715 0.0283452 16.2409 0.0806953C16.3102 0.133045 16.3607 0.20657 16.3846 0.290144L16.8182 1.80807C16.9116 2.13497 17.0867 2.43267 17.3271 2.67307C17.5675 2.91347 18.1922 3.18198 18.1922 3.18198L19.7101 3.6156C19.7937 3.63952 19.8671 3.68999 19.9194 3.75937C19.9717 3.82875 20 3.91326 20 4.00014C20 4.08702 19.9717 4.17154 19.9194 4.24092C19.8671 4.3103 19.7937 4.36077 19.7101 4.38469L18.1922 4.81831C17.8652 4.91167 17.5675 5.08682 17.3271 5.32722C17.0867 5.56761 16.9116 5.86532 16.8182 6.19222L16.3846 7.71014C16.3606 7.79366 16.3102 7.86712 16.2408 7.91942C16.1714 7.97171 16.0869 8 16 8C15.9131 8 15.8286 7.97171 15.7592 7.91942C15.6898 7.86712 15.6394 7.79366 15.6154 7.71014L15.1818 6.19222C15.0884 5.86532 14.9133 5.56761 14.6729 5.32722C14.4325 5.08682 14.1348 4.91167 13.8078 4.81831L12.2899 4.38469C12.2063 4.36077 12.1329 4.3103 12.0806 4.24092C12.0283 4.17154 12 4.08702 12 4.00014C12 3.91326 12.0283 3.82875 12.0806 3.75937C12.1329 3.68999 12.2063 3.63952 12.2899 3.6156L13.8078 3.18198C14.1348 3.08862 14.4325 2.91347 14.6729 2.67307C14.9133 2.43267 15.0884 2.13497 15.1818 1.80807L15.6154 0.290144C15.6393 0.20657 15.6898 0.133045 15.7591 0.0806953C15.8285 0.0283452 15.9131 1.79205e-05 16 0Z" fill="currentColor"></path>
</svg>
